<mxfile host="Electron" modified="2023-07-08T03:21:37.525Z" agent="Mozilla/5.0 (X11; Linux x86_64) AppleWebKit/537.36 (KHTML, like Gecko) draw.io/21.3.7 Chrome/112.0.5615.204 Electron/24.5.0 Safari/537.36" etag="18qZs4WOuLrRnBJp3Xu1" version="21.3.7" type="device">
  <diagram name="Page-1" id="Om-3peGlLS8MlE4AToRU">
    <mxGraphModel dx="957" dy="477" grid="1" gridSize="10" guides="1" tooltips="1" connect="1" arrows="1" fold="1" page="1" pageScale="1" pageWidth="850" pageHeight="1100" background="none" math="0" shadow="0">
      <root>
        <mxCell id="0" />
        <mxCell id="1" parent="0" />
        <mxCell id="RE2z4oIGo5BumyQNLzhf-1" value="" style="swimlane;startSize=0;rotation=90;rounded=1;glass=0;shadow=0;noLabel=0;resizeWidth=0;enumerate=0;moveCells=0;comic=0;labelBackgroundColor=none;" parent="1" vertex="1">
          <mxGeometry x="626" y="450.5" width="201" height="200" as="geometry">
            <mxRectangle x="375.5" y="384.5" width="50" height="40" as="alternateBounds" />
          </mxGeometry>
        </mxCell>
        <mxCell id="RE2z4oIGo5BumyQNLzhf-6" value="" style="rounded=1;whiteSpace=wrap;html=1;rotation=45;labelBackgroundColor=none;" parent="RE2z4oIGo5BumyQNLzhf-1" vertex="1">
          <mxGeometry x="151" y="20" width="50" height="10" as="geometry" />
        </mxCell>
        <mxCell id="RE2z4oIGo5BumyQNLzhf-7" value="" style="rounded=1;whiteSpace=wrap;html=1;rotation=45;labelBackgroundColor=none;" parent="RE2z4oIGo5BumyQNLzhf-1" vertex="1">
          <mxGeometry x="1" y="170" width="50" height="10" as="geometry" />
        </mxCell>
        <mxCell id="RE2z4oIGo5BumyQNLzhf-8" value="" style="rounded=1;whiteSpace=wrap;html=1;rotation=45;direction=south;labelBackgroundColor=none;" parent="RE2z4oIGo5BumyQNLzhf-1" vertex="1">
          <mxGeometry x="171" y="150" width="10" height="50" as="geometry" />
        </mxCell>
        <mxCell id="RE2z4oIGo5BumyQNLzhf-10" value="" style="rounded=1;whiteSpace=wrap;html=1;rotation=45;direction=south;labelBackgroundColor=none;" parent="RE2z4oIGo5BumyQNLzhf-1" vertex="1">
          <mxGeometry x="21" width="10" height="50" as="geometry" />
        </mxCell>
        <mxCell id="RE2z4oIGo5BumyQNLzhf-11" value="" style="endArrow=classic;html=1;rounded=1;entryX=0;entryY=0.5;entryDx=0;entryDy=0;exitX=1;exitY=0.5;exitDx=0;exitDy=0;labelBackgroundColor=none;fontColor=default;" parent="RE2z4oIGo5BumyQNLzhf-1" source="RE2z4oIGo5BumyQNLzhf-7" target="RE2z4oIGo5BumyQNLzhf-7" edge="1">
          <mxGeometry width="50" height="50" relative="1" as="geometry">
            <mxPoint x="108" y="163" as="sourcePoint" />
            <mxPoint x="179" y="163" as="targetPoint" />
          </mxGeometry>
        </mxCell>
        <mxCell id="RE2z4oIGo5BumyQNLzhf-12" value="" style="endArrow=classic;html=1;rounded=1;entryX=0;entryY=0.5;entryDx=0;entryDy=0;exitX=1;exitY=0.5;exitDx=0;exitDy=0;labelBackgroundColor=none;fontColor=default;" parent="RE2z4oIGo5BumyQNLzhf-1" source="RE2z4oIGo5BumyQNLzhf-10" target="RE2z4oIGo5BumyQNLzhf-10" edge="1">
          <mxGeometry width="50" height="50" relative="1" as="geometry">
            <mxPoint x="44" y="206" as="sourcePoint" />
            <mxPoint x="8" y="171" as="targetPoint" />
          </mxGeometry>
        </mxCell>
        <mxCell id="RE2z4oIGo5BumyQNLzhf-13" value="" style="endArrow=classic;html=1;rounded=1;entryX=1;entryY=0.5;entryDx=0;entryDy=0;exitX=0;exitY=0.5;exitDx=0;exitDy=0;labelBackgroundColor=none;fontColor=default;" parent="RE2z4oIGo5BumyQNLzhf-1" source="RE2z4oIGo5BumyQNLzhf-8" target="RE2z4oIGo5BumyQNLzhf-8" edge="1">
          <mxGeometry width="50" height="50" relative="1" as="geometry">
            <mxPoint x="190" y="160" as="sourcePoint" />
            <mxPoint x="143" y="170" as="targetPoint" />
          </mxGeometry>
        </mxCell>
        <mxCell id="RE2z4oIGo5BumyQNLzhf-14" value="" style="endArrow=classic;html=1;rounded=1;entryX=1;entryY=0.5;entryDx=0;entryDy=0;exitX=0;exitY=0.5;exitDx=0;exitDy=0;labelBackgroundColor=none;fontColor=default;" parent="RE2z4oIGo5BumyQNLzhf-1" source="RE2z4oIGo5BumyQNLzhf-6" target="RE2z4oIGo5BumyQNLzhf-6" edge="1">
          <mxGeometry width="50" height="50" relative="1" as="geometry">
            <mxPoint x="143" as="sourcePoint" />
            <mxPoint x="108" y="36" as="targetPoint" />
          </mxGeometry>
        </mxCell>
        <mxCell id="RE2z4oIGo5BumyQNLzhf-16" value="Motor 1" style="text;html=1;strokeColor=none;fillColor=none;align=center;verticalAlign=middle;whiteSpace=wrap;rounded=1;labelBackgroundColor=none;rotation=45;" parent="RE2z4oIGo5BumyQNLzhf-1" vertex="1">
          <mxGeometry x="130" y="30" width="60" height="30" as="geometry" />
        </mxCell>
        <mxCell id="RE2z4oIGo5BumyQNLzhf-19" value="Motor 4" style="text;html=1;strokeColor=none;fillColor=none;align=center;verticalAlign=middle;whiteSpace=wrap;rounded=1;labelBackgroundColor=none;rotation=-45;" parent="RE2z4oIGo5BumyQNLzhf-1" vertex="1">
          <mxGeometry x="11" y="25" width="60" height="30" as="geometry" />
        </mxCell>
        <mxCell id="RE2z4oIGo5BumyQNLzhf-17" value="Motor 3" style="text;html=1;strokeColor=none;fillColor=none;align=center;verticalAlign=middle;whiteSpace=wrap;rounded=1;labelBackgroundColor=none;rotation=45;" parent="RE2z4oIGo5BumyQNLzhf-1" vertex="1">
          <mxGeometry x="11" y="140" width="60" height="30" as="geometry" />
        </mxCell>
        <mxCell id="RE2z4oIGo5BumyQNLzhf-18" value="Motor 2" style="text;html=1;strokeColor=none;fillColor=none;align=center;verticalAlign=middle;whiteSpace=wrap;rounded=1;labelBackgroundColor=none;rotation=-45;" parent="RE2z4oIGo5BumyQNLzhf-1" vertex="1">
          <mxGeometry x="130" y="140" width="60" height="30" as="geometry" />
        </mxCell>
        <mxCell id="RE2z4oIGo5BumyQNLzhf-55" value="" style="shape=singleArrow;direction=west;whiteSpace=wrap;html=1;rotation=90;" parent="RE2z4oIGo5BumyQNLzhf-1" vertex="1">
          <mxGeometry x="50.5" y="70" width="100" height="60" as="geometry" />
        </mxCell>
        <mxCell id="6LpWzhj9OOxkW3HRjRhm-20" value="" style="group" vertex="1" connectable="0" parent="1">
          <mxGeometry x="224.5" y="450" width="200" height="201" as="geometry" />
        </mxCell>
        <mxCell id="6LpWzhj9OOxkW3HRjRhm-1" value="" style="swimlane;startSize=0;rotation=90;rounded=1;glass=0;shadow=0;noLabel=0;resizeWidth=0;enumerate=0;moveCells=0;comic=0;labelBackgroundColor=none;container=0;" vertex="1" parent="6LpWzhj9OOxkW3HRjRhm-20">
          <mxGeometry x="-0.5" y="0.5" width="201" height="200" as="geometry">
            <mxRectangle x="675.5" y="124.5" width="50" height="40" as="alternateBounds" />
          </mxGeometry>
        </mxCell>
        <mxCell id="6LpWzhj9OOxkW3HRjRhm-2" value="" style="rounded=1;whiteSpace=wrap;html=1;rotation=0;labelBackgroundColor=none;container=0;" vertex="1" parent="6LpWzhj9OOxkW3HRjRhm-20">
          <mxGeometry x="75.5" y="9.5" width="50" height="10" as="geometry" />
        </mxCell>
        <mxCell id="6LpWzhj9OOxkW3HRjRhm-3" value="" style="rounded=1;whiteSpace=wrap;html=1;rotation=0;labelBackgroundColor=none;container=0;" vertex="1" parent="6LpWzhj9OOxkW3HRjRhm-20">
          <mxGeometry x="75.5" y="181.5" width="50" height="10" as="geometry" />
        </mxCell>
        <mxCell id="6LpWzhj9OOxkW3HRjRhm-4" value="" style="rounded=1;whiteSpace=wrap;html=1;rotation=0;direction=south;labelBackgroundColor=none;container=0;" vertex="1" parent="6LpWzhj9OOxkW3HRjRhm-20">
          <mxGeometry x="181.5" y="75.5" width="10" height="50" as="geometry" />
        </mxCell>
        <mxCell id="6LpWzhj9OOxkW3HRjRhm-5" value="" style="rounded=1;whiteSpace=wrap;html=1;rotation=0;direction=south;labelBackgroundColor=none;container=0;" vertex="1" parent="6LpWzhj9OOxkW3HRjRhm-20">
          <mxGeometry x="9.5" y="75.5" width="10" height="50" as="geometry" />
        </mxCell>
        <mxCell id="6LpWzhj9OOxkW3HRjRhm-6" value="" style="endArrow=classic;html=1;rounded=1;entryX=0;entryY=0.5;entryDx=0;entryDy=0;exitX=1;exitY=0.5;exitDx=0;exitDy=0;labelBackgroundColor=none;fontColor=default;" edge="1" parent="6LpWzhj9OOxkW3HRjRhm-20" source="6LpWzhj9OOxkW3HRjRhm-3" target="6LpWzhj9OOxkW3HRjRhm-3">
          <mxGeometry width="50" height="50" relative="1" as="geometry">
            <mxPoint x="149.5" y="119.5" as="sourcePoint" />
            <mxPoint x="200.5" y="69.5" as="targetPoint" />
          </mxGeometry>
        </mxCell>
        <mxCell id="6LpWzhj9OOxkW3HRjRhm-7" value="" style="endArrow=classic;html=1;rounded=1;entryX=0;entryY=0.5;entryDx=0;entryDy=0;exitX=1;exitY=0.5;exitDx=0;exitDy=0;labelBackgroundColor=none;fontColor=default;" edge="1" parent="6LpWzhj9OOxkW3HRjRhm-20" source="6LpWzhj9OOxkW3HRjRhm-5" target="6LpWzhj9OOxkW3HRjRhm-5">
          <mxGeometry width="50" height="50" relative="1" as="geometry">
            <mxPoint x="155.5" y="215.5" as="sourcePoint" />
            <mxPoint x="104.5" y="216.5" as="targetPoint" />
          </mxGeometry>
        </mxCell>
        <mxCell id="6LpWzhj9OOxkW3HRjRhm-8" value="" style="endArrow=classic;html=1;rounded=1;entryX=1;entryY=0.5;entryDx=0;entryDy=0;exitX=0;exitY=0.5;exitDx=0;exitDy=0;labelBackgroundColor=none;fontColor=default;" edge="1" parent="6LpWzhj9OOxkW3HRjRhm-20" source="6LpWzhj9OOxkW3HRjRhm-4" target="6LpWzhj9OOxkW3HRjRhm-4">
          <mxGeometry width="50" height="50" relative="1" as="geometry">
            <mxPoint x="185.5" y="79.5" as="sourcePoint" />
            <mxPoint x="159.5" y="119.5" as="targetPoint" />
          </mxGeometry>
        </mxCell>
        <mxCell id="6LpWzhj9OOxkW3HRjRhm-9" value="" style="endArrow=classic;html=1;rounded=1;entryX=1;entryY=0.5;entryDx=0;entryDy=0;exitX=0;exitY=0.5;exitDx=0;exitDy=0;labelBackgroundColor=none;fontColor=default;" edge="1" parent="6LpWzhj9OOxkW3HRjRhm-20" source="6LpWzhj9OOxkW3HRjRhm-2" target="6LpWzhj9OOxkW3HRjRhm-2">
          <mxGeometry width="50" height="50" relative="1" as="geometry">
            <mxPoint x="59.5" y="19.5" as="sourcePoint" />
            <mxPoint x="60.5" y="69.5" as="targetPoint" />
          </mxGeometry>
        </mxCell>
        <mxCell id="6LpWzhj9OOxkW3HRjRhm-10" value="Motor 1" style="text;html=1;strokeColor=none;fillColor=none;align=center;verticalAlign=middle;whiteSpace=wrap;rounded=1;labelBackgroundColor=none;rotation=0;container=0;" vertex="1" parent="6LpWzhj9OOxkW3HRjRhm-20">
          <mxGeometry x="73.5" y="24.5" width="60" height="30" as="geometry" />
        </mxCell>
        <mxCell id="6LpWzhj9OOxkW3HRjRhm-11" value="Motor 4" style="text;html=1;strokeColor=none;fillColor=none;align=center;verticalAlign=middle;whiteSpace=wrap;rounded=1;labelBackgroundColor=none;rotation=-90;container=0;" vertex="1" parent="6LpWzhj9OOxkW3HRjRhm-20">
          <mxGeometry x="5.5" y="85.5" width="60" height="30" as="geometry" />
        </mxCell>
        <mxCell id="6LpWzhj9OOxkW3HRjRhm-12" value="Motor 3" style="text;html=1;strokeColor=none;fillColor=none;align=center;verticalAlign=middle;whiteSpace=wrap;rounded=1;labelBackgroundColor=none;rotation=0;container=0;" vertex="1" parent="6LpWzhj9OOxkW3HRjRhm-20">
          <mxGeometry x="66.5" y="146.5" width="60" height="30" as="geometry" />
        </mxCell>
        <mxCell id="6LpWzhj9OOxkW3HRjRhm-13" value="Motor 2" style="text;html=1;strokeColor=none;fillColor=none;align=center;verticalAlign=middle;whiteSpace=wrap;rounded=1;labelBackgroundColor=none;rotation=-90;container=0;" vertex="1" parent="6LpWzhj9OOxkW3HRjRhm-20">
          <mxGeometry x="130.5" y="82.5" width="60" height="30" as="geometry" />
        </mxCell>
        <mxCell id="6LpWzhj9OOxkW3HRjRhm-14" value="" style="shape=singleArrow;direction=west;whiteSpace=wrap;html=1;rotation=90;container=0;" vertex="1" parent="6LpWzhj9OOxkW3HRjRhm-20">
          <mxGeometry x="50.5" y="70.5" width="100" height="60" as="geometry" />
        </mxCell>
        <mxCell id="6LpWzhj9OOxkW3HRjRhm-23" value="This drivetrain has an offset of 0 radians" style="rounded=0;whiteSpace=wrap;html=1;" vertex="1" parent="1">
          <mxGeometry x="264.5" y="390.5" width="120" height="60" as="geometry" />
        </mxCell>
        <mxCell id="6LpWzhj9OOxkW3HRjRhm-24" value="This drivetrain has an offset of -π/4&lt;br&gt;&amp;nbsp;radians" style="rounded=0;whiteSpace=wrap;html=1;" vertex="1" parent="1">
          <mxGeometry x="666.5" y="390" width="120" height="60" as="geometry" />
        </mxCell>
        <mxCell id="6LpWzhj9OOxkW3HRjRhm-37" value="" style="swimlane;startSize=0;rotation=0;rounded=1;glass=0;shadow=0;noLabel=0;resizeWidth=0;enumerate=0;moveCells=0;comic=0;labelBackgroundColor=none;" vertex="1" parent="1">
          <mxGeometry x="425" y="450.5" width="201" height="200" as="geometry">
            <mxRectangle x="375.5" y="384.5" width="50" height="40" as="alternateBounds" />
          </mxGeometry>
        </mxCell>
        <mxCell id="6LpWzhj9OOxkW3HRjRhm-38" value="" style="rounded=1;whiteSpace=wrap;html=1;rotation=-45;labelBackgroundColor=none;" vertex="1" parent="6LpWzhj9OOxkW3HRjRhm-37">
          <mxGeometry x="1" y="20" width="50" height="10" as="geometry" />
        </mxCell>
        <mxCell id="6LpWzhj9OOxkW3HRjRhm-39" value="" style="rounded=1;whiteSpace=wrap;html=1;rotation=-45;labelBackgroundColor=none;" vertex="1" parent="6LpWzhj9OOxkW3HRjRhm-37">
          <mxGeometry x="151" y="170" width="50" height="10" as="geometry" />
        </mxCell>
        <mxCell id="6LpWzhj9OOxkW3HRjRhm-40" value="" style="rounded=1;whiteSpace=wrap;html=1;rotation=-45;direction=south;labelBackgroundColor=none;" vertex="1" parent="6LpWzhj9OOxkW3HRjRhm-37">
          <mxGeometry x="171" width="10" height="50" as="geometry" />
        </mxCell>
        <mxCell id="6LpWzhj9OOxkW3HRjRhm-41" value="" style="rounded=1;whiteSpace=wrap;html=1;rotation=-45;direction=south;labelBackgroundColor=none;" vertex="1" parent="6LpWzhj9OOxkW3HRjRhm-37">
          <mxGeometry x="21" y="150" width="10" height="50" as="geometry" />
        </mxCell>
        <mxCell id="6LpWzhj9OOxkW3HRjRhm-42" value="" style="endArrow=classic;html=1;rounded=1;entryX=0;entryY=0.5;entryDx=0;entryDy=0;exitX=1;exitY=0.5;exitDx=0;exitDy=0;labelBackgroundColor=none;fontColor=default;" edge="1" parent="6LpWzhj9OOxkW3HRjRhm-37" source="6LpWzhj9OOxkW3HRjRhm-39" target="6LpWzhj9OOxkW3HRjRhm-39">
          <mxGeometry width="50" height="50" relative="1" as="geometry">
            <mxPoint x="164" y="93" as="sourcePoint" />
            <mxPoint x="164" y="22" as="targetPoint" />
          </mxGeometry>
        </mxCell>
        <mxCell id="6LpWzhj9OOxkW3HRjRhm-43" value="" style="endArrow=classic;html=1;rounded=1;entryX=0;entryY=0.5;entryDx=0;entryDy=0;exitX=1;exitY=0.5;exitDx=0;exitDy=0;labelBackgroundColor=none;fontColor=default;" edge="1" parent="6LpWzhj9OOxkW3HRjRhm-37" source="6LpWzhj9OOxkW3HRjRhm-41" target="6LpWzhj9OOxkW3HRjRhm-41">
          <mxGeometry width="50" height="50" relative="1" as="geometry">
            <mxPoint x="207" y="157" as="sourcePoint" />
            <mxPoint x="172" y="193" as="targetPoint" />
          </mxGeometry>
        </mxCell>
        <mxCell id="6LpWzhj9OOxkW3HRjRhm-44" value="" style="endArrow=classic;html=1;rounded=1;entryX=1;entryY=0.5;entryDx=0;entryDy=0;exitX=0;exitY=0.5;exitDx=0;exitDy=0;labelBackgroundColor=none;fontColor=default;" edge="1" parent="6LpWzhj9OOxkW3HRjRhm-37" source="6LpWzhj9OOxkW3HRjRhm-40" target="6LpWzhj9OOxkW3HRjRhm-40">
          <mxGeometry width="50" height="50" relative="1" as="geometry">
            <mxPoint x="161" y="11" as="sourcePoint" />
            <mxPoint x="171" y="58" as="targetPoint" />
          </mxGeometry>
        </mxCell>
        <mxCell id="6LpWzhj9OOxkW3HRjRhm-45" value="" style="endArrow=classic;html=1;rounded=1;entryX=1;entryY=0.5;entryDx=0;entryDy=0;exitX=0;exitY=0.5;exitDx=0;exitDy=0;labelBackgroundColor=none;fontColor=default;" edge="1" parent="6LpWzhj9OOxkW3HRjRhm-37" source="6LpWzhj9OOxkW3HRjRhm-38" target="6LpWzhj9OOxkW3HRjRhm-38">
          <mxGeometry width="50" height="50" relative="1" as="geometry">
            <mxPoint x="1" y="57" as="sourcePoint" />
            <mxPoint x="37" y="93" as="targetPoint" />
          </mxGeometry>
        </mxCell>
        <mxCell id="6LpWzhj9OOxkW3HRjRhm-46" value="Motor 1" style="text;html=1;strokeColor=none;fillColor=none;align=center;verticalAlign=middle;whiteSpace=wrap;rounded=1;labelBackgroundColor=none;rotation=-45;" vertex="1" parent="6LpWzhj9OOxkW3HRjRhm-37">
          <mxGeometry x="16" y="26" width="60" height="30" as="geometry" />
        </mxCell>
        <mxCell id="6LpWzhj9OOxkW3HRjRhm-47" value="Motor 4" style="text;html=1;strokeColor=none;fillColor=none;align=center;verticalAlign=middle;whiteSpace=wrap;rounded=1;labelBackgroundColor=none;rotation=45;" vertex="1" parent="6LpWzhj9OOxkW3HRjRhm-37">
          <mxGeometry x="10" y="145" width="60" height="30" as="geometry" />
        </mxCell>
        <mxCell id="6LpWzhj9OOxkW3HRjRhm-48" value="Motor 3" style="text;html=1;strokeColor=none;fillColor=none;align=center;verticalAlign=middle;whiteSpace=wrap;rounded=1;labelBackgroundColor=none;rotation=-45;" vertex="1" parent="6LpWzhj9OOxkW3HRjRhm-37">
          <mxGeometry x="126" y="145" width="60" height="30" as="geometry" />
        </mxCell>
        <mxCell id="6LpWzhj9OOxkW3HRjRhm-49" value="Motor 2" style="text;html=1;strokeColor=none;fillColor=none;align=center;verticalAlign=middle;whiteSpace=wrap;rounded=1;labelBackgroundColor=none;rotation=45;" vertex="1" parent="6LpWzhj9OOxkW3HRjRhm-37">
          <mxGeometry x="126" y="26" width="60" height="30" as="geometry" />
        </mxCell>
        <mxCell id="6LpWzhj9OOxkW3HRjRhm-50" value="" style="shape=singleArrow;direction=west;whiteSpace=wrap;html=1;rotation=90;" vertex="1" parent="6LpWzhj9OOxkW3HRjRhm-37">
          <mxGeometry x="51" y="70" width="100" height="60" as="geometry" />
        </mxCell>
        <mxCell id="6LpWzhj9OOxkW3HRjRhm-51" value="This drivetrain has an offset of +π/4&lt;br&gt;&amp;nbsp;radians" style="rounded=0;whiteSpace=wrap;html=1;" vertex="1" parent="1">
          <mxGeometry x="465.5" y="391" width="120" height="60" as="geometry" />
        </mxCell>
      </root>
    </mxGraphModel>
  </diagram>
</mxfile>
